HIERARCHY
ROOT Hips
{
	OFFSET	0	0	0
	CHANNELS 6  Xposition Yposition Zposition Xrotation Yrotation Zrotation
	JOINT Spine
	{
		OFFSET	0	7.0817	1.42564
		CHANNELS 3  Xrotation Yrotation Zrotation
		JOINT Spine1
		{
			OFFSET	0	12.1578	-2.17103
			CHANNELS 3  Xrotation Yrotation Zrotation
			JOINT Spine2
			{
				OFFSET	0	9.21601	0.987817
				CHANNELS 3  Xrotation Yrotation Zrotation
				JOINT Spine3
				{
					OFFSET	0	11.0288	3.27825
					CHANNELS 3  Xrotation Yrotation Zrotation
					JOINT Spine4
					{
						OFFSET	0	16.3261	-1.67169
						CHANNELS 3  Xrotation Yrotation Zrotation
						JOINT Neck
						{
							OFFSET	0	7.79399	-5.46013
							CHANNELS 3  Xrotation Yrotation Zrotation
							JOINT Head
							{
								OFFSET	0	9.35713	-2.80063
								CHANNELS 3  Xrotation Yrotation Zrotation
								End Site
								{
									OFFSET	0	19.5175	-0.944397
								}
							}
						}
					}
					JOINT LeftShoulder
					{
						OFFSET	-4.68942	19.8432	-9.35713
						CHANNELS 3  Xrotation Yrotation Zrotation
						JOINT LeftArm
						{
							OFFSET	-10.2519	-2.80063	3.59307
							CHANNELS 3  Xrotation Yrotation Zrotation
							JOINT LeftForeArm
							{
								OFFSET	-34.1249	-1.55752	2.4358
								CHANNELS 3  Xrotation Yrotation Zrotation
								JOINT LeftHand
								{
									OFFSET	-28.1809	-1.94746	2.01152
									CHANNELS 3  Xrotation Yrotation Zrotation
									End Site
									{
										OFFSET	-10.2846	-0.710727	0.734058
									}
								}
							}
						}
					}
					JOINT RightShoulder
					{
						OFFSET	4.68942	19.8432	-9.35713
						CHANNELS 3  Xrotation Yrotation Zrotation
						JOINT RightArm
						{
							OFFSET	10.2519	-2.80063	3.59307
							CHANNELS 3  Xrotation Yrotation Zrotation
							JOINT RightForeArm
							{
								OFFSET	34.1249	-1.55752	2.4358
								CHANNELS 3  Xrotation Yrotation Zrotation
								JOINT RightHand
								{
									OFFSET	28.1809	-1.94746	2.01152
									CHANNELS 3  Xrotation Yrotation Zrotation
									End Site
									{
										OFFSET	10.2846	-0.710727	0.734058
									}
								}
							}
						}
					}
				}
			}
		}
	}
	JOINT LeftUpLeg
	{
		OFFSET	-9.64475	-3.54085	-0.712821
		CHANNELS 3  Xrotation Yrotation Zrotation
		JOINT LeftLeg
		{
			OFFSET	-2.14734	-42.0762	-0.657743
			CHANNELS 3  Xrotation Yrotation Zrotation
			JOINT LeftFoot
			{
				OFFSET	-2.09898	-38.6909	3.32741
				CHANNELS 3  Xrotation Yrotation Zrotation
				JOINT LeftToeBase
				{
					OFFSET	0	-4.81787	-12.7963
					CHANNELS 3  Xrotation Yrotation Zrotation
					End Site
					{
						OFFSET	0	-1.92715	-7.70859
					}
				}
			}
		}
	}
	JOINT RightUpLeg
	{
		OFFSET	9.64475	-3.54085	-0.712821
		CHANNELS 3  Xrotation Yrotation Zrotation
		JOINT RightLeg
		{
			OFFSET	2.14734	-42.0762	-0.657743
			CHANNELS 3  Xrotation Yrotation Zrotation
			JOINT RightFoot
			{
				OFFSET	2.09898	-38.6909	3.32741
				CHANNELS 3  Xrotation Yrotation Zrotation
				JOINT RightToeBase
				{
					OFFSET	0	-4.81787	-12.7963
					CHANNELS 3  Xrotation Yrotation Zrotation
					End Site
					{
						OFFSET	0	-1.92715	-7.70859
					}
				}
			}
		}
	}
}
MOTION
Frames: 16
Frame Time: 0.020408
 -169.349 27.9879 -262.338 48.7588 -161.46 51.1085 0.000590896 0.00324361 -10.3245 1.49276 0.00629884 -17.2075 1.46056 0.0188965 -17.2075 0.886162 0.00324361 -10.3245 0.748293 -0.0449993 -3.4412 0.120739 7.60555 10.5057 0.216365 1.76355 3.22226 1.35396 -4.26406 2.70544 112.706 -87.9172 156.676 53.1087 -66.5617 48.9176 -0 -8.77083 -90.7538 178.503 -171.365 -177.369 37.8873 44.736 -70.3666 4.60713 81.1413 -2.85508 -0 -47.6837 1.11365 24.8379 4.42575 45.6898 71.4066 172.968 -179.839 5.12856 -0.0489177 -0.189314 179.968 180 -180 94.7187 10.9252 44.8162 70.1981 -171.711 179.418 172.339 179.936 -179.905 0.0221447 0 0
 -168.966 28.4345 -262.039 49.6068 -162.439 50.6601 0.00167108 0.00938408 -10.0972 1.47138 0.018247 -16.8286 1.46241 0.0547411 -16.8286 0.918894 0.00938408 -10.0972 0.627581 -0.0369077 -3.36552 179.892 172.592 -170.249 0.11997 2.34492 3.03738 1.402 -6.91987 2.85399 161.432 -87.8421 -146.353 63.4796 -68.9681 60.0973 -0 -9.05112 -92.2772 177.102 -172.127 -174.85 39.5516 45.2954 -69.0188 8.09816 83.303 -6.27954 -0 -48.5312 1.20998 79.3461 35.0733 35.2528 89.4328 163.986 178.026 144.703 179.907 179.97 179.7 180 -180 95.5813 11.7835 41.924 67.219 -167.702 179.848 176.203 179.818 -179.757 0.0437264 0 0
 -167.498 26.721 -260.679 46.011 -167.194 50.3912 0.00718683 0.0390611 -10.4252 1.23056 0.0758088 -17.3754 1.32142 0.227426 -17.3755 0.942002 0.0390611 -10.4252 0.0981591 -0.0059608 -3.47507 178.664 172.633 -170.368 179.74 177.091 -176.982 1.4069 -10.4154 2.92386 36.1939 -91.2929 93.9771 73.0952 -70.0531 70.4582 -0 -9.19883 -93.841 174.656 -176.15 -169.992 41.9286 29.3354 -71.9719 0.976882 55.3153 -1.9769 -0 -19.4151 17.7949 77.2777 36.3614 42.9067 86.7381 165.467 -178.338 155.813 -179.644 -178.948 179.679 180 -180 96.27 10.691 39.0014 61.7212 -163.666 179.461 173.218 179.996 -179.586 0.0578548 0 0
 -166.272 24.2922 -257.943 41.8024 -167.132 49.8549 0.00147517 0.00781953 -10.6834 0.797081 0.0151526 -17.8057 1.02164 0.0454578 -17.8057 1.1741 0.00781953 -10.6834 178.763 179.923 176.44 175.315 174.003 -170.629 178.712 177.929 -177.188 1.13601 -12.6265 2.38652 48.2357 3.87999 102.273 2.0618 -79.5694 1.36333 -0 1.01752 -3.01298 173.027 -177.779 -166.642 44.0203 28.858 -73.423 179.214 124.416 -177.738 -0 -20.1972 22.557 85.3587 34.1347 47.3675 82.92 166.539 -178.697 166.589 -179.929 -178.289 179.665 180 -180 95.3891 8.89497 39.935 57.3348 -160.65 -179.957 174.057 179.939 -179.454 0.0690034 0 0
 -166.318 23.6187 -257.534 42.3589 -165.43 50.3131 179.989 -179.939 169.375 0.440332 -0.118552 -17.7082 0.636854 -0.355655 -17.7085 1.12401 -0.0611574 -10.6249 178.257 179.892 176.46 174.243 175.495 -171.445 178.368 179.476 -177.57 1.92925 -9.7175 3.99607 46.8489 -5.36213 92.844 5.57176 -83.5685 3.37059 -0 0.803711 -3.53592 170.256 -177.988 -161.022 44.3964 29.1335 -72.8327 177.161 122.53 -175.466 -0 -18.0969 25.5395 81.8362 8.73737 39.968 90.3585 -179.007 -171.882 1.33962 -6.15242 0.721167 0.0887404 0 0 95.397 8.81428 43.6602 52.8134 -158.044 -179.524 172.41 -179.849 -179.311 0.0794523 0 0
 -168.365 26.5722 -258.705 44.8105 -171.025 54.2427 179.995 -179.972 169.077 0.378725 -0.054946 -18.2058 0.538441 -0.164838 -18.2059 0.846627 -0.0283968 -10.9235 178.764 179.921 176.36 175.84 176.43 -172.705 178.826 -179.533 -177.981 1.68956 -6.82582 3.4381 42.9784 -13.0071 86.7614 68.7202 -88.7319 66.7632 -0 0.60308 -4.04271 169.759 179.224 -159.476 45.9424 30.4654 -73.71 175.571 121.244 -174.421 -0 -16.3355 27.7906 76.7056 13.384 44.6453 90.2584 -175.589 -178.208 176.226 -179.383 -178.147 0.0874563 0 0 96.5921 8.41063 40.5544 45.0661 -155.536 -179.348 171.099 -179.806 -179.163 0.0903577 0 0
 -166.447 23.6162 -256.807 43.3819 -170.015 51.156 0.00221099 0.0119354 -10.4949 0.264295 0.0231544 -17.4915 0.421452 0.0694632 -17.4915 0.601233 0.0119354 -10.4949 179.089 179.944 176.502 176.869 176.521 -172.318 179.145 -178.712 -177.918 1.48629 -4.13387 2.96728 41.0151 -17.9332 84.9607 164.533 -83.0871 162.637 -0 0.187005 -4.51104 169.698 177.52 -159.054 45.5585 30.8509 -70.2866 174.15 123.101 -173.381 -0 -14.5994 29.8485 73.1701 23.7911 50.206 87.1973 -173.214 179.286 175.69 -179.931 -177.255 0.0880051 0 0 99.4502 8.41112 37.6726 40.0728 -153.888 -179.296 172.997 179.87 -179.233 0.103146 0 0
 -164.65 21.9863 -255.733 43.0778 -167.027 47.7179 0.000157621 0.000889746 -10.0459 0.0672473 0.00173058 -16.7432 0.270123 0.00519175 -16.7432 0.650144 0.000889746 -10.0459 178.612 179.919 176.652 175.573 176.698 -170.62 178.789 -177.171 -177.598 1.57152 -0.500355 3.04588 39.9292 -19.3862 85.8218 169.438 -76.9601 167.654 -0 -0.125361 -5.44356 169.567 175.432 -158.437 45.3096 31.4817 -67.6021 172.299 124.257 -172.013 -0 -12.4398 32.3584 43.7822 -18.1026 10.1454 110.07 167.087 179.979 178.92 173.776 -177.904 178.653 180 -180 101.188 8.30431 37.6286 38.8934 -152.64 -179.52 173.408 179.932 -179.229 0.111626 0 0
 -175.051 36.057 -260.186 56.6137 -178.592 63.0221 0.00566453 0.0284563 -11.2582 1.13358 0.0549451 -18.7637 1.13749 0.164835 -18.7637 0.648654 0.0284563 -11.2582 0.604347 -0.0396392 -3.75252 0.17612 3.93705 9.64468 0.200764 -3.56554 2.57696 1.48161 5.79499 2.69429 43.0506 -15.1996 85.1523 171.295 -72.6658 169.205 -0 -0.147989 -6.98281 170.902 168.21 -160.543 51.6622 32.8799 -67.9092 170.265 123.045 -169.991 -0 -10.5243 34.5915 34.5949 -16.6677 16.0048 107.666 166.936 -178.913 174.588 179.932 -177.695 178.648 180 -180 103.731 9.35183 34.2513 36.191 -151.502 -179.565 172.187 -179.957 -179.207 0.117516 0 0
 -174.86 34.3217 -259.339 59.1088 -178.12 63.8493 0.0139308 0.0692956 -11.3669 1.88582 0.133707 -18.9449 1.76494 0.401119 -18.9454 0.602515 0.0692956 -11.3669 2.09746 -0.138877 -3.78643 3.66921 4.93476 9.80372 1.27681 -3.33649 2.78359 1.1891 7.23779 2.12555 46.0561 -12.9386 90.5601 171.985 -68.0974 170.781 -0 -0.855613 -7.91929 169.636 162.195 -157.213 56.6508 36.06 -65.7462 168.738 122.848 -169.047 -0 -8.77314 35.7661 29.9826 -15.118 20.9685 104.404 166.874 -179.871 172.064 -179.981 -177.493 178.645 180 -180 107.873 8.99282 26.8222 36.6631 -150.271 178.846 169.67 179.863 -179.505 0.11761 0 0
 -169.28 30.7317 -258.962 59.149 179.561 57.413 179.998 -179.991 169.224 2.60903 -0.0168365 -17.9597 2.23943 -0.0505096 -17.9597 0.66529 -0.00869342 -10.7758 3.37565 -0.211777 -3.5857 6.3606 6.6753 10.9295 2.15176 -3.00753 3.28802 1.64109 8.68259 2.88255 18.6905 -95.7405 35.4206 0.352981 -58.7321 -0.0302203 -0 9.5205 -0.180781 168.876 158.697 -155.286 57.2524 39.2573 -63.897 168.001 123.431 -168.355 -0 -7.55804 36.7601 23.0082 -16.1852 22.6811 105.971 166.944 -179.933 167.716 -179.998 -177.37 178.638 180 -180 110.509 8.98173 18.8685 35.3475 -148.574 -179.635 175.599 -179.966 -179.409 0.130921 0 0
 -162.622 28.0525 -258.765 58.7764 176.293 49.4849 179.98 -179.889 169.997 3.09103 -0.216001 -16.6712 2.71499 -0.648002 -16.6721 1.34423 -0.111026 -10.0027 2.77389 -0.16154 -3.3303 4.01518 7.16804 12.0476 1.47873 -2.54539 3.54955 1.30462 11.2455 2.21388 70.9518 -91.0381 76.713 0.286643 -60.8948 -1.89415 -0 8.59872 -0.955326 168.764 157.596 -154.991 55.5416 42.3312 -64.1697 167.272 123.387 -167.687 -0 -6.44233 37.9089 71.0817 -19.5465 5.4664 100.592 179.047 177.686 157.083 -177.569 179.805 179.929 180 -180 112.305 7.64842 16.6077 37.1418 -146.819 179.737 177.66 -179.953 -179.336 0.135056 0 0
 -172.637 41.4967 -258.124 63.3415 163.725 68.5519 0.0293279 0.135074 -12.2502 3.56088 0.259075 -20.4172 3.59919 0.777223 -20.4189 1.8752 0.135074 -12.2502 2.23123 -0.159246 -4.0803 2.37191 6.63169 10.9822 0.926339 -1.40559 3.22009 0.867872 15.2231 1.38707 1.62648 -84.5961 1.53675 0.388616 -62.1587 -1.54918 -0 6.74717 -1.49063 170.322 153.829 -158.585 57.7965 43.4492 -66.5272 165.283 122.513 -164.566 -0 -4.91265 40.278 70.2632 -16.7355 11.5607 99.4375 176.709 179.598 159.111 -179.399 179.834 179.888 180 -180 114.041 6.28548 17.0415 35.9937 -145.139 -179.728 178.815 -179.847 -179.279 0.143694 0 0
 -172.993 41.6923 -256.317 64.8956 164.371 70.1804 179.997 -179.985 167.48 3.74533 -0.0293844 -20.8675 3.61348 -0.0881533 -20.8675 2.17262 -0.0153496 -12.5205 2.01292 -0.146853 -4.17091 1.58756 6.818 10.1809 0.655718 0.161657 3.05654 1.44939 16.7007 2.26161 20.4326 -79.5679 14.7378 0.00512617 -61.6889 -1.98647 -0 5.98676 -2.1699 170.267 153.882 -158.458 57.298 45.7244 -66.7981 162.481 121.033 -163.024 -0 -3.05233 41.5598 65.7804 -14.7764 14.7126 95.8771 176.102 179.736 4.61123 -0.203246 -0.00313462 179.884 180 -180 114.687 4.18957 18.3296 36.1611 -144.014 179.837 179.735 -179.969 -179.379 0.147168 0 0
 -173.156 38.3615 -253.538 62.2612 163.115 71.4776 0.00185462 0.00818424 -12.7681 4.05409 0.0156391 -21.2802 3.93659 0.0469174 -21.2802 2.31146 0.00818424 -12.7681 2.25093 -0.167468 -4.25275 1.97627 8.01193 10.28 0.777295 1.88246 3.2185 1.39894 16.4458 2.19218 38.3962 -74.6189 27.1919 179.454 -122.814 177.639 -0 7.48412 -3.78267 170.604 153.432 -159.232 57.9465 46.8116 -67.7596 161.204 121.112 -161.923 -0 -1.90022 43.202 104.38 -20.6569 13.2649 95.3136 -168.538 -178.593 179.121 -171.232 -176.655 0.00352049 0 0 118.238 1.96292 17.3248 36.3802 -142.674 178.701 0.406037 0.16793 0.389806 0.151425 0 0
 -172.146 42.8092 -252.466 64.261 155.404 75.1894 179.995 -179.981 166.572 4.61959 -0.0358726 -22.3802 4.41492 -0.107618 -22.3802 2.55968 -0.0188671 -13.4281 2.76226 -0.216147 -4.47082 3.04709 9.42012 9.01472 1.05354 5.23093 3.09341 1.35057 15.9999 2.13208 54.8886 -67.8005 37.5286 178.817 -128.459 177.372 -0 10.2283 -6.97071 170.721 152.719 -159.504 62.1627 49.8571 -73.083 158.81 120.474 -159.671 -0 -0.63485 44.7972 101.884 -13.3398 17.9111 86.7428 -165.562 -177.975 170.721 -179.437 -175.557 179.988 180 -180 113.167 -35.2864 -9.77408 87.9855 -146.861 -174.326 155.678 -156.937 -174.97 0.00423951 0 0
